<svg width="9" height="13" viewBox="0 0 9 13" fill="none" xmlns="http://www.w3.org/2000/svg">
<path d="M8.88 6.216C8.88 7.224 8.77067 8.10133 8.552 8.848C8.33867 9.58933 8.04 10.2027 7.656 10.688C7.27733 11.1733 6.82667 11.536 6.304 11.776C5.78667 12.0107 5.22667 12.128 4.624 12.128C4.02133 12.128 3.46133 12.0107 2.944 11.776C2.432 11.536 1.98667 11.1733 1.608 10.688C1.22933 10.2027 0.933333 9.58933 0.72 8.848C0.506667 8.10133 0.4 7.224 0.4 6.216C0.4 5.20267 0.506667 4.32533 0.72 3.584C0.933333 2.84267 1.22933 2.22933 1.608 1.744C1.98667 1.25867 2.432 0.898666 2.944 0.664C3.46133 0.424 4.02133 0.304 4.624 0.304C5.22667 0.304 5.78667 0.424 6.304 0.664C6.82667 0.898666 7.27733 1.25867 7.656 1.744C8.04 2.22933 8.33867 2.84267 8.552 3.584C8.77067 4.32533 8.88 5.20267 8.88 6.216ZM6.84 6.216C6.84 5.37867 6.77867 4.68533 6.656 4.136C6.53333 3.58667 6.368 3.14933 6.16 2.824C5.95733 2.49867 5.72267 2.272 5.456 2.144C5.18933 2.01067 4.912 1.944 4.624 1.944C4.34133 1.944 4.06667 2.01067 3.8 2.144C3.53867 2.272 3.30667 2.49867 3.104 2.824C2.90133 3.14933 2.73867 3.58667 2.616 4.136C2.49867 4.68533 2.44 5.37867 2.44 6.216C2.44 7.05333 2.49867 7.74667 2.616 8.296C2.73867 8.84533 2.90133 9.28267 3.104 9.608C3.30667 9.93333 3.53867 10.1627 3.8 10.296C4.06667 10.424 4.34133 10.488 4.624 10.488C4.912 10.488 5.18933 10.424 5.456 10.296C5.72267 10.1627 5.95733 9.93333 6.16 9.608C6.368 9.28267 6.53333 8.84533 6.656 8.296C6.77867 7.74667 6.84 7.05333 6.84 6.216Z" fill="white"/>
</svg>
